<mxfile host="app.diagrams.net" modified="2021-05-31T19:17:17.349Z" agent="5.0 (Windows NT 10.0; Win64; x64) AppleWebKit/537.36 (KHTML, like Gecko) Chrome/90.0.4430.72 YaBrowser/21.5.1.330 Yowser/2.5 Safari/537.36" etag="HK01zGV_E0MG1AciEVMd" version="14.7.3" type="github">
  <diagram id="R2lEEEUBdFMjLlhIrx00" name="Page-1">
    <mxGraphModel dx="1422" dy="789" grid="1" gridSize="10" guides="1" tooltips="1" connect="1" arrows="1" fold="1" page="1" pageScale="1" pageWidth="850" pageHeight="1100" math="0" shadow="0" extFonts="Permanent Marker^https://fonts.googleapis.com/css?family=Permanent+Marker">
      <root>
        <mxCell id="0" />
        <mxCell id="1" parent="0" />
        <mxCell id="C-vyLk0tnHw3VtMMgP7b-23" value="Подписки" style="shape=table;startSize=30;container=1;collapsible=1;childLayout=tableLayout;fixedRows=1;rowLines=0;fontStyle=1;align=center;resizeLast=1;" parent="1" vertex="1">
          <mxGeometry x="610" y="310" width="220" height="120" as="geometry" />
        </mxCell>
        <mxCell id="C-vyLk0tnHw3VtMMgP7b-24" value="" style="shape=partialRectangle;collapsible=0;dropTarget=0;pointerEvents=0;fillColor=none;points=[[0,0.5],[1,0.5]];portConstraint=eastwest;top=0;left=0;right=0;bottom=1;" parent="C-vyLk0tnHw3VtMMgP7b-23" vertex="1">
          <mxGeometry y="30" width="220" height="30" as="geometry" />
        </mxCell>
        <mxCell id="C-vyLk0tnHw3VtMMgP7b-25" value="PK" style="shape=partialRectangle;overflow=hidden;connectable=0;fillColor=none;top=0;left=0;bottom=0;right=0;fontStyle=1;" parent="C-vyLk0tnHw3VtMMgP7b-24" vertex="1">
          <mxGeometry width="50" height="30" as="geometry" />
        </mxCell>
        <mxCell id="C-vyLk0tnHw3VtMMgP7b-26" value="id_подписка" style="shape=partialRectangle;overflow=hidden;connectable=0;fillColor=none;top=0;left=0;bottom=0;right=0;align=left;spacingLeft=6;fontStyle=5;" parent="C-vyLk0tnHw3VtMMgP7b-24" vertex="1">
          <mxGeometry x="50" width="170" height="30" as="geometry" />
        </mxCell>
        <mxCell id="C-vyLk0tnHw3VtMMgP7b-27" value="" style="shape=partialRectangle;collapsible=0;dropTarget=0;pointerEvents=0;fillColor=none;points=[[0,0.5],[1,0.5]];portConstraint=eastwest;top=0;left=0;right=0;bottom=0;" parent="C-vyLk0tnHw3VtMMgP7b-23" vertex="1">
          <mxGeometry y="60" width="220" height="30" as="geometry" />
        </mxCell>
        <mxCell id="C-vyLk0tnHw3VtMMgP7b-28" value="МТМ" style="shape=partialRectangle;overflow=hidden;connectable=0;fillColor=none;top=0;left=0;bottom=0;right=0;" parent="C-vyLk0tnHw3VtMMgP7b-27" vertex="1">
          <mxGeometry width="50" height="30" as="geometry" />
        </mxCell>
        <mxCell id="C-vyLk0tnHw3VtMMgP7b-29" value="подписка от этого профиля" style="shape=partialRectangle;overflow=hidden;connectable=0;fillColor=none;top=0;left=0;bottom=0;right=0;align=left;spacingLeft=6;" parent="C-vyLk0tnHw3VtMMgP7b-27" vertex="1">
          <mxGeometry x="50" width="170" height="30" as="geometry" />
        </mxCell>
        <mxCell id="NDm3nozadg6u8kFghgap-1" value="" style="shape=partialRectangle;collapsible=0;dropTarget=0;pointerEvents=0;fillColor=none;points=[[0,0.5],[1,0.5]];portConstraint=eastwest;top=0;left=0;right=0;bottom=0;" vertex="1" parent="C-vyLk0tnHw3VtMMgP7b-23">
          <mxGeometry y="90" width="220" height="30" as="geometry" />
        </mxCell>
        <mxCell id="NDm3nozadg6u8kFghgap-2" value="МТМ" style="shape=partialRectangle;overflow=hidden;connectable=0;fillColor=none;top=0;left=0;bottom=0;right=0;" vertex="1" parent="NDm3nozadg6u8kFghgap-1">
          <mxGeometry width="50" height="30" as="geometry" />
        </mxCell>
        <mxCell id="NDm3nozadg6u8kFghgap-3" value="подписка на этот профиль" style="shape=partialRectangle;overflow=hidden;connectable=0;fillColor=none;top=0;left=0;bottom=0;right=0;align=left;spacingLeft=6;" vertex="1" parent="NDm3nozadg6u8kFghgap-1">
          <mxGeometry x="50" width="170" height="30" as="geometry" />
        </mxCell>
        <mxCell id="NDm3nozadg6u8kFghgap-4" value="Профиль" style="shape=table;startSize=30;container=1;collapsible=1;childLayout=tableLayout;fixedRows=1;rowLines=0;fontStyle=1;align=center;resizeLast=1;" vertex="1" parent="1">
          <mxGeometry x="310" y="30" width="230" height="210" as="geometry" />
        </mxCell>
        <mxCell id="NDm3nozadg6u8kFghgap-5" value="" style="shape=partialRectangle;collapsible=0;dropTarget=0;pointerEvents=0;fillColor=none;points=[[0,0.5],[1,0.5]];portConstraint=eastwest;top=0;left=0;right=0;bottom=1;" vertex="1" parent="NDm3nozadg6u8kFghgap-4">
          <mxGeometry y="30" width="230" height="30" as="geometry" />
        </mxCell>
        <mxCell id="NDm3nozadg6u8kFghgap-6" value="PK" style="shape=partialRectangle;overflow=hidden;connectable=0;fillColor=none;top=0;left=0;bottom=0;right=0;fontStyle=1;" vertex="1" parent="NDm3nozadg6u8kFghgap-5">
          <mxGeometry width="50" height="30" as="geometry" />
        </mxCell>
        <mxCell id="NDm3nozadg6u8kFghgap-7" value="id_профиль" style="shape=partialRectangle;overflow=hidden;connectable=0;fillColor=none;top=0;left=0;bottom=0;right=0;align=left;spacingLeft=6;fontStyle=5;" vertex="1" parent="NDm3nozadg6u8kFghgap-5">
          <mxGeometry x="50" width="180" height="30" as="geometry" />
        </mxCell>
        <mxCell id="NDm3nozadg6u8kFghgap-8" value="" style="shape=partialRectangle;collapsible=0;dropTarget=0;pointerEvents=0;fillColor=none;points=[[0,0.5],[1,0.5]];portConstraint=eastwest;top=0;left=0;right=0;bottom=0;" vertex="1" parent="NDm3nozadg6u8kFghgap-4">
          <mxGeometry y="60" width="230" height="30" as="geometry" />
        </mxCell>
        <mxCell id="NDm3nozadg6u8kFghgap-9" value="" style="shape=partialRectangle;overflow=hidden;connectable=0;fillColor=none;top=0;left=0;bottom=0;right=0;" vertex="1" parent="NDm3nozadg6u8kFghgap-8">
          <mxGeometry width="50" height="30" as="geometry" />
        </mxCell>
        <mxCell id="NDm3nozadg6u8kFghgap-10" value="описание" style="shape=partialRectangle;overflow=hidden;connectable=0;fillColor=none;top=0;left=0;bottom=0;right=0;align=left;spacingLeft=6;" vertex="1" parent="NDm3nozadg6u8kFghgap-8">
          <mxGeometry x="50" width="180" height="30" as="geometry" />
        </mxCell>
        <mxCell id="NDm3nozadg6u8kFghgap-11" value="" style="shape=partialRectangle;collapsible=0;dropTarget=0;pointerEvents=0;fillColor=none;points=[[0,0.5],[1,0.5]];portConstraint=eastwest;top=0;left=0;right=0;bottom=0;" vertex="1" parent="NDm3nozadg6u8kFghgap-4">
          <mxGeometry y="90" width="230" height="30" as="geometry" />
        </mxCell>
        <mxCell id="NDm3nozadg6u8kFghgap-12" value="" style="shape=partialRectangle;overflow=hidden;connectable=0;fillColor=none;top=0;left=0;bottom=0;right=0;" vertex="1" parent="NDm3nozadg6u8kFghgap-11">
          <mxGeometry width="50" height="30" as="geometry" />
        </mxCell>
        <mxCell id="NDm3nozadg6u8kFghgap-13" value="фотография" style="shape=partialRectangle;overflow=hidden;connectable=0;fillColor=none;top=0;left=0;bottom=0;right=0;align=left;spacingLeft=6;" vertex="1" parent="NDm3nozadg6u8kFghgap-11">
          <mxGeometry x="50" width="180" height="30" as="geometry" />
        </mxCell>
        <mxCell id="NDm3nozadg6u8kFghgap-14" value="" style="shape=partialRectangle;collapsible=0;dropTarget=0;pointerEvents=0;fillColor=none;points=[[0,0.5],[1,0.5]];portConstraint=eastwest;top=0;left=0;right=0;bottom=0;" vertex="1" parent="NDm3nozadg6u8kFghgap-4">
          <mxGeometry y="120" width="230" height="30" as="geometry" />
        </mxCell>
        <mxCell id="NDm3nozadg6u8kFghgap-15" value="FK1" style="shape=partialRectangle;overflow=hidden;connectable=0;fillColor=none;top=0;left=0;bottom=0;right=0;" vertex="1" parent="NDm3nozadg6u8kFghgap-14">
          <mxGeometry width="50" height="30" as="geometry" />
        </mxCell>
        <mxCell id="NDm3nozadg6u8kFghgap-16" value="id_пользователь" style="shape=partialRectangle;overflow=hidden;connectable=0;fillColor=none;top=0;left=0;bottom=0;right=0;align=left;spacingLeft=6;" vertex="1" parent="NDm3nozadg6u8kFghgap-14">
          <mxGeometry x="50" width="180" height="30" as="geometry" />
        </mxCell>
        <mxCell id="NDm3nozadg6u8kFghgap-17" value="" style="shape=partialRectangle;collapsible=0;dropTarget=0;pointerEvents=0;fillColor=none;points=[[0,0.5],[1,0.5]];portConstraint=eastwest;top=0;left=0;right=0;bottom=0;" vertex="1" parent="NDm3nozadg6u8kFghgap-4">
          <mxGeometry y="150" width="230" height="30" as="geometry" />
        </mxCell>
        <mxCell id="NDm3nozadg6u8kFghgap-18" value="МТМ" style="shape=partialRectangle;overflow=hidden;connectable=0;fillColor=none;top=0;left=0;bottom=0;right=0;" vertex="1" parent="NDm3nozadg6u8kFghgap-17">
          <mxGeometry width="50" height="30" as="geometry" />
        </mxCell>
        <mxCell id="NDm3nozadg6u8kFghgap-19" value="подписка на пользователей" style="shape=partialRectangle;overflow=hidden;connectable=0;fillColor=none;top=0;left=0;bottom=0;right=0;align=left;spacingLeft=6;" vertex="1" parent="NDm3nozadg6u8kFghgap-17">
          <mxGeometry x="50" width="180" height="30" as="geometry" />
        </mxCell>
        <mxCell id="NDm3nozadg6u8kFghgap-20" value="" style="shape=partialRectangle;collapsible=0;dropTarget=0;pointerEvents=0;fillColor=none;points=[[0,0.5],[1,0.5]];portConstraint=eastwest;top=0;left=0;right=0;bottom=0;" vertex="1" parent="NDm3nozadg6u8kFghgap-4">
          <mxGeometry y="180" width="230" height="30" as="geometry" />
        </mxCell>
        <mxCell id="NDm3nozadg6u8kFghgap-21" value="МТМ" style="shape=partialRectangle;overflow=hidden;connectable=0;fillColor=none;top=0;left=0;bottom=0;right=0;" vertex="1" parent="NDm3nozadg6u8kFghgap-20">
          <mxGeometry width="50" height="30" as="geometry" />
        </mxCell>
        <mxCell id="NDm3nozadg6u8kFghgap-22" value="подписка на мероприятия" style="shape=partialRectangle;overflow=hidden;connectable=0;fillColor=none;top=0;left=0;bottom=0;right=0;align=left;spacingLeft=6;" vertex="1" parent="NDm3nozadg6u8kFghgap-20">
          <mxGeometry x="50" width="180" height="30" as="geometry" />
        </mxCell>
        <mxCell id="NDm3nozadg6u8kFghgap-23" value="Пользователь" style="shape=table;startSize=30;container=1;collapsible=1;childLayout=tableLayout;fixedRows=1;rowLines=0;fontStyle=1;align=center;resizeLast=1;" vertex="1" parent="1">
          <mxGeometry x="50" y="150" width="200" height="180" as="geometry" />
        </mxCell>
        <mxCell id="NDm3nozadg6u8kFghgap-24" value="" style="shape=partialRectangle;collapsible=0;dropTarget=0;pointerEvents=0;fillColor=none;points=[[0,0.5],[1,0.5]];portConstraint=eastwest;top=0;left=0;right=0;bottom=1;" vertex="1" parent="NDm3nozadg6u8kFghgap-23">
          <mxGeometry y="30" width="200" height="30" as="geometry" />
        </mxCell>
        <mxCell id="NDm3nozadg6u8kFghgap-25" value="PK" style="shape=partialRectangle;overflow=hidden;connectable=0;fillColor=none;top=0;left=0;bottom=0;right=0;fontStyle=1;" vertex="1" parent="NDm3nozadg6u8kFghgap-24">
          <mxGeometry width="50" height="30" as="geometry" />
        </mxCell>
        <mxCell id="NDm3nozadg6u8kFghgap-26" value="id_user" style="shape=partialRectangle;overflow=hidden;connectable=0;fillColor=none;top=0;left=0;bottom=0;right=0;align=left;spacingLeft=6;fontStyle=5;" vertex="1" parent="NDm3nozadg6u8kFghgap-24">
          <mxGeometry x="50" width="150" height="30" as="geometry" />
        </mxCell>
        <mxCell id="NDm3nozadg6u8kFghgap-27" value="" style="shape=partialRectangle;collapsible=0;dropTarget=0;pointerEvents=0;fillColor=none;points=[[0,0.5],[1,0.5]];portConstraint=eastwest;top=0;left=0;right=0;bottom=0;" vertex="1" parent="NDm3nozadg6u8kFghgap-23">
          <mxGeometry y="60" width="200" height="30" as="geometry" />
        </mxCell>
        <mxCell id="NDm3nozadg6u8kFghgap-28" value="" style="shape=partialRectangle;overflow=hidden;connectable=0;fillColor=none;top=0;left=0;bottom=0;right=0;" vertex="1" parent="NDm3nozadg6u8kFghgap-27">
          <mxGeometry width="50" height="30" as="geometry" />
        </mxCell>
        <mxCell id="NDm3nozadg6u8kFghgap-29" value="имя" style="shape=partialRectangle;overflow=hidden;connectable=0;fillColor=none;top=0;left=0;bottom=0;right=0;align=left;spacingLeft=6;" vertex="1" parent="NDm3nozadg6u8kFghgap-27">
          <mxGeometry x="50" width="150" height="30" as="geometry" />
        </mxCell>
        <mxCell id="NDm3nozadg6u8kFghgap-30" value="" style="shape=partialRectangle;collapsible=0;dropTarget=0;pointerEvents=0;fillColor=none;points=[[0,0.5],[1,0.5]];portConstraint=eastwest;top=0;left=0;right=0;bottom=0;" vertex="1" parent="NDm3nozadg6u8kFghgap-23">
          <mxGeometry y="90" width="200" height="30" as="geometry" />
        </mxCell>
        <mxCell id="NDm3nozadg6u8kFghgap-31" value="" style="shape=partialRectangle;overflow=hidden;connectable=0;fillColor=none;top=0;left=0;bottom=0;right=0;" vertex="1" parent="NDm3nozadg6u8kFghgap-30">
          <mxGeometry width="50" height="30" as="geometry" />
        </mxCell>
        <mxCell id="NDm3nozadg6u8kFghgap-32" value="фамилия" style="shape=partialRectangle;overflow=hidden;connectable=0;fillColor=none;top=0;left=0;bottom=0;right=0;align=left;spacingLeft=6;" vertex="1" parent="NDm3nozadg6u8kFghgap-30">
          <mxGeometry x="50" width="150" height="30" as="geometry" />
        </mxCell>
        <mxCell id="NDm3nozadg6u8kFghgap-33" value="" style="shape=partialRectangle;collapsible=0;dropTarget=0;pointerEvents=0;fillColor=none;points=[[0,0.5],[1,0.5]];portConstraint=eastwest;top=0;left=0;right=0;bottom=0;" vertex="1" parent="NDm3nozadg6u8kFghgap-23">
          <mxGeometry y="120" width="200" height="30" as="geometry" />
        </mxCell>
        <mxCell id="NDm3nozadg6u8kFghgap-34" value="" style="shape=partialRectangle;overflow=hidden;connectable=0;fillColor=none;top=0;left=0;bottom=0;right=0;" vertex="1" parent="NDm3nozadg6u8kFghgap-33">
          <mxGeometry width="50" height="30" as="geometry" />
        </mxCell>
        <mxCell id="NDm3nozadg6u8kFghgap-35" value="почта" style="shape=partialRectangle;overflow=hidden;connectable=0;fillColor=none;top=0;left=0;bottom=0;right=0;align=left;spacingLeft=6;" vertex="1" parent="NDm3nozadg6u8kFghgap-33">
          <mxGeometry x="50" width="150" height="30" as="geometry" />
        </mxCell>
        <mxCell id="NDm3nozadg6u8kFghgap-36" value="" style="shape=partialRectangle;collapsible=0;dropTarget=0;pointerEvents=0;fillColor=none;points=[[0,0.5],[1,0.5]];portConstraint=eastwest;top=0;left=0;right=0;bottom=0;" vertex="1" parent="NDm3nozadg6u8kFghgap-23">
          <mxGeometry y="150" width="200" height="30" as="geometry" />
        </mxCell>
        <mxCell id="NDm3nozadg6u8kFghgap-37" value="" style="shape=partialRectangle;overflow=hidden;connectable=0;fillColor=none;top=0;left=0;bottom=0;right=0;" vertex="1" parent="NDm3nozadg6u8kFghgap-36">
          <mxGeometry width="50" height="30" as="geometry" />
        </mxCell>
        <mxCell id="NDm3nozadg6u8kFghgap-38" value="пароль" style="shape=partialRectangle;overflow=hidden;connectable=0;fillColor=none;top=0;left=0;bottom=0;right=0;align=left;spacingLeft=6;" vertex="1" parent="NDm3nozadg6u8kFghgap-36">
          <mxGeometry x="50" width="150" height="30" as="geometry" />
        </mxCell>
        <mxCell id="NDm3nozadg6u8kFghgap-42" value="Мероприятие" style="shape=table;startSize=30;container=1;collapsible=1;childLayout=tableLayout;fixedRows=1;rowLines=0;fontStyle=1;align=center;resizeLast=1;" vertex="1" parent="1">
          <mxGeometry x="50" y="380" width="200" height="300" as="geometry" />
        </mxCell>
        <mxCell id="NDm3nozadg6u8kFghgap-43" value="" style="shape=partialRectangle;collapsible=0;dropTarget=0;pointerEvents=0;fillColor=none;points=[[0,0.5],[1,0.5]];portConstraint=eastwest;top=0;left=0;right=0;bottom=1;" vertex="1" parent="NDm3nozadg6u8kFghgap-42">
          <mxGeometry y="30" width="200" height="30" as="geometry" />
        </mxCell>
        <mxCell id="NDm3nozadg6u8kFghgap-44" value="PK" style="shape=partialRectangle;overflow=hidden;connectable=0;fillColor=none;top=0;left=0;bottom=0;right=0;fontStyle=1;" vertex="1" parent="NDm3nozadg6u8kFghgap-43">
          <mxGeometry width="50" height="30" as="geometry" />
        </mxCell>
        <mxCell id="NDm3nozadg6u8kFghgap-45" value="id_мероприятие" style="shape=partialRectangle;overflow=hidden;connectable=0;fillColor=none;top=0;left=0;bottom=0;right=0;align=left;spacingLeft=6;fontStyle=5;" vertex="1" parent="NDm3nozadg6u8kFghgap-43">
          <mxGeometry x="50" width="150" height="30" as="geometry" />
        </mxCell>
        <mxCell id="NDm3nozadg6u8kFghgap-46" value="" style="shape=partialRectangle;collapsible=0;dropTarget=0;pointerEvents=0;fillColor=none;points=[[0,0.5],[1,0.5]];portConstraint=eastwest;top=0;left=0;right=0;bottom=0;" vertex="1" parent="NDm3nozadg6u8kFghgap-42">
          <mxGeometry y="60" width="200" height="30" as="geometry" />
        </mxCell>
        <mxCell id="NDm3nozadg6u8kFghgap-47" value="" style="shape=partialRectangle;overflow=hidden;connectable=0;fillColor=none;top=0;left=0;bottom=0;right=0;" vertex="1" parent="NDm3nozadg6u8kFghgap-46">
          <mxGeometry width="50" height="30" as="geometry" />
        </mxCell>
        <mxCell id="NDm3nozadg6u8kFghgap-48" value="название" style="shape=partialRectangle;overflow=hidden;connectable=0;fillColor=none;top=0;left=0;bottom=0;right=0;align=left;spacingLeft=6;" vertex="1" parent="NDm3nozadg6u8kFghgap-46">
          <mxGeometry x="50" width="150" height="30" as="geometry" />
        </mxCell>
        <mxCell id="NDm3nozadg6u8kFghgap-49" value="" style="shape=partialRectangle;collapsible=0;dropTarget=0;pointerEvents=0;fillColor=none;points=[[0,0.5],[1,0.5]];portConstraint=eastwest;top=0;left=0;right=0;bottom=0;" vertex="1" parent="NDm3nozadg6u8kFghgap-42">
          <mxGeometry y="90" width="200" height="30" as="geometry" />
        </mxCell>
        <mxCell id="NDm3nozadg6u8kFghgap-50" value="" style="shape=partialRectangle;overflow=hidden;connectable=0;fillColor=none;top=0;left=0;bottom=0;right=0;" vertex="1" parent="NDm3nozadg6u8kFghgap-49">
          <mxGeometry width="50" height="30" as="geometry" />
        </mxCell>
        <mxCell id="NDm3nozadg6u8kFghgap-51" value="описание" style="shape=partialRectangle;overflow=hidden;connectable=0;fillColor=none;top=0;left=0;bottom=0;right=0;align=left;spacingLeft=6;" vertex="1" parent="NDm3nozadg6u8kFghgap-49">
          <mxGeometry x="50" width="150" height="30" as="geometry" />
        </mxCell>
        <mxCell id="NDm3nozadg6u8kFghgap-52" value="" style="shape=partialRectangle;collapsible=0;dropTarget=0;pointerEvents=0;fillColor=none;points=[[0,0.5],[1,0.5]];portConstraint=eastwest;top=0;left=0;right=0;bottom=0;" vertex="1" parent="NDm3nozadg6u8kFghgap-42">
          <mxGeometry y="120" width="200" height="30" as="geometry" />
        </mxCell>
        <mxCell id="NDm3nozadg6u8kFghgap-53" value="" style="shape=partialRectangle;overflow=hidden;connectable=0;fillColor=none;top=0;left=0;bottom=0;right=0;" vertex="1" parent="NDm3nozadg6u8kFghgap-52">
          <mxGeometry width="50" height="30" as="geometry" />
        </mxCell>
        <mxCell id="NDm3nozadg6u8kFghgap-54" value="адрес" style="shape=partialRectangle;overflow=hidden;connectable=0;fillColor=none;top=0;left=0;bottom=0;right=0;align=left;spacingLeft=6;" vertex="1" parent="NDm3nozadg6u8kFghgap-52">
          <mxGeometry x="50" width="150" height="30" as="geometry" />
        </mxCell>
        <mxCell id="NDm3nozadg6u8kFghgap-55" value="" style="shape=partialRectangle;collapsible=0;dropTarget=0;pointerEvents=0;fillColor=none;points=[[0,0.5],[1,0.5]];portConstraint=eastwest;top=0;left=0;right=0;bottom=0;" vertex="1" parent="NDm3nozadg6u8kFghgap-42">
          <mxGeometry y="150" width="200" height="30" as="geometry" />
        </mxCell>
        <mxCell id="NDm3nozadg6u8kFghgap-56" value="" style="shape=partialRectangle;overflow=hidden;connectable=0;fillColor=none;top=0;left=0;bottom=0;right=0;" vertex="1" parent="NDm3nozadg6u8kFghgap-55">
          <mxGeometry width="50" height="30" as="geometry" />
        </mxCell>
        <mxCell id="NDm3nozadg6u8kFghgap-57" value="время" style="shape=partialRectangle;overflow=hidden;connectable=0;fillColor=none;top=0;left=0;bottom=0;right=0;align=left;spacingLeft=6;" vertex="1" parent="NDm3nozadg6u8kFghgap-55">
          <mxGeometry x="50" width="150" height="30" as="geometry" />
        </mxCell>
        <mxCell id="NDm3nozadg6u8kFghgap-58" value="" style="shape=partialRectangle;collapsible=0;dropTarget=0;pointerEvents=0;fillColor=none;points=[[0,0.5],[1,0.5]];portConstraint=eastwest;top=0;left=0;right=0;bottom=0;" vertex="1" parent="NDm3nozadg6u8kFghgap-42">
          <mxGeometry y="180" width="200" height="30" as="geometry" />
        </mxCell>
        <mxCell id="NDm3nozadg6u8kFghgap-59" value="" style="shape=partialRectangle;overflow=hidden;connectable=0;fillColor=none;top=0;left=0;bottom=0;right=0;" vertex="1" parent="NDm3nozadg6u8kFghgap-58">
          <mxGeometry width="50" height="30" as="geometry" />
        </mxCell>
        <mxCell id="NDm3nozadg6u8kFghgap-60" value="время" style="shape=partialRectangle;overflow=hidden;connectable=0;fillColor=none;top=0;left=0;bottom=0;right=0;align=left;spacingLeft=6;" vertex="1" parent="NDm3nozadg6u8kFghgap-58">
          <mxGeometry x="50" width="150" height="30" as="geometry" />
        </mxCell>
        <mxCell id="NDm3nozadg6u8kFghgap-61" value="" style="shape=partialRectangle;collapsible=0;dropTarget=0;pointerEvents=0;fillColor=none;points=[[0,0.5],[1,0.5]];portConstraint=eastwest;top=0;left=0;right=0;bottom=0;" vertex="1" parent="NDm3nozadg6u8kFghgap-42">
          <mxGeometry y="210" width="200" height="30" as="geometry" />
        </mxCell>
        <mxCell id="NDm3nozadg6u8kFghgap-62" value="" style="shape=partialRectangle;overflow=hidden;connectable=0;fillColor=none;top=0;left=0;bottom=0;right=0;" vertex="1" parent="NDm3nozadg6u8kFghgap-61">
          <mxGeometry width="50" height="30" as="geometry" />
        </mxCell>
        <mxCell id="NDm3nozadg6u8kFghgap-63" value="количество участников" style="shape=partialRectangle;overflow=hidden;connectable=0;fillColor=none;top=0;left=0;bottom=0;right=0;align=left;spacingLeft=6;" vertex="1" parent="NDm3nozadg6u8kFghgap-61">
          <mxGeometry x="50" width="150" height="30" as="geometry" />
        </mxCell>
        <mxCell id="NDm3nozadg6u8kFghgap-64" value="" style="shape=partialRectangle;collapsible=0;dropTarget=0;pointerEvents=0;fillColor=none;points=[[0,0.5],[1,0.5]];portConstraint=eastwest;top=0;left=0;right=0;bottom=0;" vertex="1" parent="NDm3nozadg6u8kFghgap-42">
          <mxGeometry y="240" width="200" height="30" as="geometry" />
        </mxCell>
        <mxCell id="NDm3nozadg6u8kFghgap-65" value="FK1" style="shape=partialRectangle;overflow=hidden;connectable=0;fillColor=none;top=0;left=0;bottom=0;right=0;" vertex="1" parent="NDm3nozadg6u8kFghgap-64">
          <mxGeometry width="50" height="30" as="geometry" />
        </mxCell>
        <mxCell id="NDm3nozadg6u8kFghgap-66" value="создатель" style="shape=partialRectangle;overflow=hidden;connectable=0;fillColor=none;top=0;left=0;bottom=0;right=0;align=left;spacingLeft=6;" vertex="1" parent="NDm3nozadg6u8kFghgap-64">
          <mxGeometry x="50" width="150" height="30" as="geometry" />
        </mxCell>
        <mxCell id="NDm3nozadg6u8kFghgap-67" value="" style="shape=partialRectangle;collapsible=0;dropTarget=0;pointerEvents=0;fillColor=none;points=[[0,0.5],[1,0.5]];portConstraint=eastwest;top=0;left=0;right=0;bottom=0;" vertex="1" parent="NDm3nozadg6u8kFghgap-42">
          <mxGeometry y="270" width="200" height="30" as="geometry" />
        </mxCell>
        <mxCell id="NDm3nozadg6u8kFghgap-68" value="МТМ" style="shape=partialRectangle;overflow=hidden;connectable=0;fillColor=none;top=0;left=0;bottom=0;right=0;" vertex="1" parent="NDm3nozadg6u8kFghgap-67">
          <mxGeometry width="50" height="30" as="geometry" />
        </mxCell>
        <mxCell id="NDm3nozadg6u8kFghgap-69" value="участник" style="shape=partialRectangle;overflow=hidden;connectable=0;fillColor=none;top=0;left=0;bottom=0;right=0;align=left;spacingLeft=6;" vertex="1" parent="NDm3nozadg6u8kFghgap-67">
          <mxGeometry x="50" width="150" height="30" as="geometry" />
        </mxCell>
        <mxCell id="NDm3nozadg6u8kFghgap-71" style="edgeStyle=orthogonalEdgeStyle;rounded=0;orthogonalLoop=1;jettySize=auto;html=1;exitX=1;exitY=0.5;exitDx=0;exitDy=0;" edge="1" parent="NDm3nozadg6u8kFghgap-42" source="NDm3nozadg6u8kFghgap-52" target="NDm3nozadg6u8kFghgap-52">
          <mxGeometry relative="1" as="geometry" />
        </mxCell>
        <mxCell id="NDm3nozadg6u8kFghgap-70" value="" style="endArrow=none;html=1;rounded=0;exitX=1;exitY=0.5;exitDx=0;exitDy=0;entryX=0;entryY=0.5;entryDx=0;entryDy=0;" edge="1" parent="1" source="NDm3nozadg6u8kFghgap-17" target="C-vyLk0tnHw3VtMMgP7b-27">
          <mxGeometry relative="1" as="geometry">
            <mxPoint x="340" y="410" as="sourcePoint" />
            <mxPoint x="500" y="410" as="targetPoint" />
            <Array as="points">
              <mxPoint x="570" y="195" />
              <mxPoint x="570" y="385" />
            </Array>
          </mxGeometry>
        </mxCell>
        <mxCell id="NDm3nozadg6u8kFghgap-72" value="" style="endArrow=none;html=1;rounded=0;entryX=0;entryY=0.5;entryDx=0;entryDy=0;exitX=1;exitY=0.5;exitDx=0;exitDy=0;" edge="1" parent="1" source="NDm3nozadg6u8kFghgap-17" target="NDm3nozadg6u8kFghgap-1">
          <mxGeometry relative="1" as="geometry">
            <mxPoint x="340" y="300" as="sourcePoint" />
            <mxPoint x="570" y="380" as="targetPoint" />
            <Array as="points">
              <mxPoint x="570" y="195" />
              <mxPoint x="570" y="415" />
            </Array>
          </mxGeometry>
        </mxCell>
        <mxCell id="NDm3nozadg6u8kFghgap-73" value="" style="endArrow=none;html=1;rounded=0;exitX=1;exitY=0.5;exitDx=0;exitDy=0;entryX=0;entryY=0.5;entryDx=0;entryDy=0;" edge="1" parent="1" source="NDm3nozadg6u8kFghgap-43" target="NDm3nozadg6u8kFghgap-20">
          <mxGeometry relative="1" as="geometry">
            <mxPoint x="340" y="300" as="sourcePoint" />
            <mxPoint x="500" y="300" as="targetPoint" />
            <Array as="points">
              <mxPoint x="280" y="425" />
              <mxPoint x="280" y="225" />
            </Array>
          </mxGeometry>
        </mxCell>
        <mxCell id="NDm3nozadg6u8kFghgap-74" value="" style="endArrow=none;html=1;rounded=0;exitX=0;exitY=0.5;exitDx=0;exitDy=0;entryX=0;entryY=0.5;entryDx=0;entryDy=0;" edge="1" parent="1" source="NDm3nozadg6u8kFghgap-24" target="NDm3nozadg6u8kFghgap-64">
          <mxGeometry relative="1" as="geometry">
            <mxPoint x="340" y="300" as="sourcePoint" />
            <mxPoint x="500" y="300" as="targetPoint" />
            <Array as="points">
              <mxPoint x="30" y="195" />
              <mxPoint x="30" y="635" />
            </Array>
          </mxGeometry>
        </mxCell>
        <mxCell id="NDm3nozadg6u8kFghgap-75" value="" style="endArrow=none;html=1;rounded=0;exitX=0;exitY=0.5;exitDx=0;exitDy=0;entryX=0;entryY=0.5;entryDx=0;entryDy=0;" edge="1" parent="1" source="NDm3nozadg6u8kFghgap-24" target="NDm3nozadg6u8kFghgap-67">
          <mxGeometry relative="1" as="geometry">
            <mxPoint x="340" y="440" as="sourcePoint" />
            <mxPoint x="500" y="440" as="targetPoint" />
            <Array as="points">
              <mxPoint x="10" y="195" />
              <mxPoint x="10" y="665" />
            </Array>
          </mxGeometry>
        </mxCell>
      </root>
    </mxGraphModel>
  </diagram>
</mxfile>
